# xmcd CD database file
#
# Track frame offsets:
#	150
#	29355
#	75095
#	100175
#	124644
#	179819
#	208896
#	230444
#	251845
#
# Disc length: 3656 seconds
#
# Revision: 0
# Processed by: cddbd v1.5.2PL0 Copyright (c) Steve Scherf et al.
# Submitted via: CDex 1.51
#
DISCID=740e4609
DTITLE=Tom Waits - Real Gone Tour [CD1)
DYEAR=2004
DGENRE=Blues
TTITLE0=Make It Rain
TTITLE1=Don't Go Into That Barn
TTITLE2=Lost At The Bottom Of The World
TTITLE3=Hoist That Rag
TTITLE4=Sins Of The Father
TTITLE5=Top Of The Hill
TTITLE6=Trampled Rose
TTITLE7=All The World Is Green
TTITLE8=Misery Is The River Of The World
EXTD=YEAR: 2004
EXTT0=
EXTT1=
EXTT2=
EXTT3=
EXTT4=
EXTT5=
EXTT6=
EXTT7=
EXTT8=
PLAYORDER=
